HIERARCHY
ROOT hip
{
  OFFSET -4.43778 81.1123 39.4375
  CHANNELS 6 Xposition Yposition Zposition Zrotation Xrotation Yrotation
  JOINT abdomen
  {
    OFFSET 0 20.6881 -0.73152
    CHANNELS 3 Zrotation Xrotation Yrotation
    JOINT chest
    {
      OFFSET 0 11.7043 -0.48768
      CHANNELS 3 Zrotation Xrotation Yrotation
      JOINT neck
      {
        OFFSET 0 22.1894 -2.19456
        CHANNELS 3 Zrotation Xrotation Yrotation
        JOINT head
        {
          OFFSET -0.24384 7.07133 1.2192
          CHANNELS 3 Zrotation Xrotation Yrotation
          JOINT leftEye
          {
            OFFSET 4.14528 8.04674 8.04672
            CHANNELS 3 Zrotation Xrotation Yrotation
            End Site
            {
              OFFSET 1 0 0
            }
          }
          JOINT rightEye
          {
            OFFSET -3.6576 8.04674 8.04672
            CHANNELS 3 Zrotation Xrotation Yrotation
            End Site
            {
              OFFSET 1 0 0
            }
          }
        }
      }
      JOINT rCollar
      {
        OFFSET -2.68224 19.2634 -4.8768
        CHANNELS 3 Zrotation Xrotation Yrotation
        JOINT rShldr
        {
          OFFSET -8.77824 -1.95073 1.46304
          CHANNELS 3 Zrotation Xrotation Yrotation
          JOINT rForeArm
          {
            OFFSET -28.1742 -1.7115 0.48768
            CHANNELS 3 Zrotation Xrotation Yrotation
            JOINT rHand
            {
              OFFSET -22.5879 0.773209 7.07136
              CHANNELS 3 Zrotation Xrotation Yrotation
              JOINT rThumb1
              {
                OFFSET -1.2192 -0.487915 3.41376
                CHANNELS 3 Zrotation Xrotation Yrotation
                JOINT rThumb2
                {
                  OFFSET -3.37035 -0.52449 3.41376
                  CHANNELS 3 Zrotation Xrotation Yrotation
                  End Site
                  {
                    OFFSET -1.78271 -1.18214 1.43049
                  }
                }
              }
              JOINT rIndex1
              {
                OFFSET -7.75947 0.938293 5.60832
                CHANNELS 3 Zrotation Xrotation Yrotation
                JOINT rIndex2
                {
                  OFFSET -2.54057 -0.884171 1.56538
                  CHANNELS 3 Zrotation Xrotation Yrotation
                  End Site
                  {
                    OFFSET -1.62519 -0.234802 1.16502
                  }
                }
              }
              JOINT rMid1
              {
                OFFSET -8.24714 1.18213 3.41376
                CHANNELS 3 Zrotation Xrotation Yrotation
                JOINT rMid2
                {
                  OFFSET -3.10165 -0.590103 1.0647
                  CHANNELS 3 Zrotation Xrotation Yrotation
                  End Site
                  {
                    OFFSET -2.48547 -0.328903 0.83742
                  }
                }
              }
              JOINT rRing1
              {
                OFFSET -8.82822 0.546677 1.51678
                CHANNELS 3 Zrotation Xrotation Yrotation
                JOINT rRing2
                {
                  OFFSET -2.60934 -0.819778 -0.0198488
                  CHANNELS 3 Zrotation Xrotation Yrotation
                  End Site
                  {
                    OFFSET -2.33842 -0.294052 0.168128
                  }
                }
              }
              JOINT rPinky1
              {
                OFFSET -8.27202 -0.0477905 -0.4584
                CHANNELS 3 Zrotation Xrotation Yrotation
                JOINT rPinky2
                {
                  OFFSET -1.82734 -0.647385 -0.700984
                  CHANNELS 3 Zrotation Xrotation Yrotation
                  End Site
                  {
                    OFFSET -1.69225 -0.51767 -0.607171
                  }
                }
              }
            }
          }
        }
      }
      JOINT lCollar
      {
        OFFSET 2.68224 19.2634 -4.8768
        CHANNELS 3 Zrotation Xrotation Yrotation
        JOINT lShldr
        {
          OFFSET 8.77824 -1.95073 1.46304
          CHANNELS 3 Zrotation Xrotation Yrotation
          JOINT lForeArm
          {
            OFFSET 28.1742 -1.7115 0.48768
            CHANNELS 3 Zrotation Xrotation Yrotation
            JOINT lHand
            {
              OFFSET 22.5879 0.773209 7.07136
              CHANNELS 3 Zrotation Xrotation Yrotation
              JOINT lThumb1
              {
                OFFSET 1.2192 -0.487915 3.41376
                CHANNELS 3 Zrotation Xrotation Yrotation
                JOINT lThumb2
                {
                  OFFSET 3.37035 -0.52449 3.41376
                  CHANNELS 3 Zrotation Xrotation Yrotation
                  End Site
                  {
                    OFFSET 1.78271 -1.18214 1.43049
                  }
                }
              }
              JOINT lIndex1
              {
                OFFSET 7.75947 0.938293 5.60832
                CHANNELS 3 Zrotation Xrotation Yrotation
                JOINT lIndex2
                {
                  OFFSET 2.54057 -0.884171 1.56538
                  CHANNELS 3 Zrotation Xrotation Yrotation
                  End Site
                  {
                    OFFSET 1.62519 -0.234802 1.16502
                  }
                }
              }
              JOINT lMid1
              {
                OFFSET 8.24714 1.18213 3.41376
                CHANNELS 3 Zrotation Xrotation Yrotation
                JOINT lMid2
                {
                  OFFSET 3.10165 -0.590103 1.0647
                  CHANNELS 3 Zrotation Xrotation Yrotation
                  End Site
                  {
                    OFFSET 2.48547 -0.328903 0.83742
                  }
                }
              }
              JOINT lRing1
              {
                OFFSET 8.82822 0.546677 1.51678
                CHANNELS 3 Zrotation Xrotation Yrotation
                JOINT lRing2
                {
                  OFFSET 2.60934 -0.819778 -0.0198488
                  CHANNELS 3 Zrotation Xrotation Yrotation
                  End Site
                  {
                    OFFSET 2.33842 -0.294052 0.168128
                  }
                }
              }
              JOINT lPinky1
              {
                OFFSET 8.27202 -0.0477905 -0.4584
                CHANNELS 3 Zrotation Xrotation Yrotation
                JOINT lPinky2
                {
                  OFFSET 1.82734 -0.647385 -0.700984
                  CHANNELS 3 Zrotation Xrotation Yrotation
                  End Site
                  {
                    OFFSET 1.69225 -0.51767 -0.607171
                  }
                }
              }
            }
          }
        }
      }
    }
  }
  JOINT rButtock
  {
    OFFSET -8.77824 4.35084 1.2192
    CHANNELS 3 Zrotation Xrotation Yrotation
    JOINT rThigh
    {
      OFFSET 0 -1.70687 -2.19456
      CHANNELS 3 Zrotation Xrotation Yrotation
      JOINT rShin
      {
        OFFSET 0 -36.8199 0.73152
        CHANNELS 3 Zrotation Xrotation Yrotation
        JOINT rFoot
        {
          OFFSET 0.73152 -45.1104 -5.12064
          CHANNELS 3 Zrotation Xrotation Yrotation
          End Site
          {
            OFFSET -1.1221 -3.69964 12.103
          }
        }
      }
    }
  }
  JOINT lButtock
  {
    OFFSET 8.77824 4.35084 1.2192
    CHANNELS 3 Zrotation Xrotation Yrotation
    JOINT lThigh
    {
      OFFSET 0 -1.70687 -2.19456
      CHANNELS 3 Zrotation Xrotation Yrotation
      JOINT lShin
      {
        OFFSET 0 -36.8199 0.73152
        CHANNELS 3 Zrotation Xrotation Yrotation
        JOINT lFoot
        {
          OFFSET -0.73152 -45.1104 -5.12064
          CHANNELS 3 Zrotation Xrotation Yrotation
          End Site
          {
            OFFSET 1.1221 -3.69964 12.103
          }
        }
      }
    }
  }
}
MOTION
Frames:	5
Frame Time:	0.00833333
-28.2889 83.5488 19.0528 0.584929 -0.000670141 -0.0103467 -0.769346 -0.00386031 -0.0215834 -0.212073 -0.00504116 -0.0367439 7.03895e-016 1.59028e-015 -1.98785e-016 1.94592e-015 1.59028e-014 -6.49156e-016 -0 0 0 -0 0 0 2.96853e-016 -1.16475e-018 -9.93923e-017 8.3212e-015 8.07563e-017 -1.19271e-015 1.08984e-013 -2.90226e-014 -5.725e-014 1.21303e-012 3.43649e-014 -4.6118e-013 2.86193e-012 7.98091e-015 -1.1291e-012 4.94099e-012 9.54166e-015 -1.9632e-012 2.86687e-012 9.54166e-015 -1.13864e-012 7.73091 5.47488 0.417314 2.8619e-012 7.7526e-015 -1.1291e-012 2.90554 0.965183 0.102902 2.87321e-012 8.24956e-015 -1.13228e-012 10.2786 0.731801 0.0259123 2.86469e-012 7.95139e-015 -1.1291e-012 2.22167 -0.733487 -0.20892 2.00132e-016 -2.32951e-018 -1.98785e-016 4.002e-015 -2.11209e-016 -3.57812e-015 1.05555e-013 2.96189e-014 -3.81667e-014 1.20867e-012 -3.2228e-014 -4.73903e-013 2.85352e-012 -6.86734e-015 -1.13228e-012 4.93225e-012 -1.59028e-014 -1.95207e-012 2.84819e-012 -3.18055e-015 -1.11637e-012 -7.73091 5.47488 -0.417314 2.85281e-012 -6.75868e-015 -1.13546e-012 -2.90554 0.965183 -0.102902 2.84584e-012 -6.16232e-015 -1.1283e-012 -10.2786 0.731801 -0.0259123 2.86131e-012 -3.97569e-015 -1.13228e-012 -2.22167 -0.733487 0.20892 -2.03217e-016 0 -3.88251e-019 -0.0539084 -2.09674 -0.0177082 -0.00904019 -1.75491 -0.0760431 -0.528937 3.85119 0.139777 2.03217e-016 0 3.88251e-019 -1.11487 -4.98914 0.0938581 0.00115142 3.48418 -0.00507127 0.537006 1.50463 -0.0922796 
-35.2543 82.2107 8.96734 1.27764 -0.174606 31.5924 -0.80673 -1.08327 0.785563 -0.705198 2.00698 0.220048 1.22898 4.70063 1.788 -1.23433 -10.6012 3.20115 -0 0 0 -0 0 0 8.33995e-015 -4.66094e-014 6.06316e-014 22.3264 10.0775 0.765942 -13.3224 -10.3752 13.9978 0.0250665 3.51315 0.490393 1.90306e-010 3.24279e-010 -4.12273e-010 3.25129e-010 5.59077e-010 -7.13878e-010 1.90312e-010 3.24281e-010 -4.12281e-010 7.73091 5.47488 0.417314 1.90307e-010 3.24279e-010 -4.12272e-010 2.90554 0.965183 0.102902 1.90315e-010 3.2428e-010 -4.12276e-010 10.2786 0.731801 0.0259123 1.90306e-010 3.24281e-010 -4.12273e-010 2.22167 -0.733487 -0.20892 8.25989e-015 -4.66091e-014 6.04938e-014 -21.2606 8.58589 0.19164 12.8089 -9.81539 -13.7939 -0.0307032 3.88845 -0.541949 -4.40606e-010 -2.55095e-010 -6.73376e-012 -7.61911e-010 -4.42865e-010 -6.25146e-012 -4.40617e-010 -2.55093e-010 -6.71669e-012 -7.73091 5.47488 -0.417314 -4.40608e-010 -2.55097e-010 -6.73599e-012 -2.90554 0.965183 -0.102902 -4.40614e-010 -2.55097e-010 -6.73154e-012 -10.2786 0.731801 -0.0259123 -4.406e-010 -2.55095e-010 -6.73448e-012 -2.22167 -0.733487 0.20892 -2.03217e-016 0 -3.88251e-019 -3.07124 -4.7385 0.463858 0.0492863 8.76839 0.134172 -1.64354 -4.61281 -6.24274 2.03217e-016 0 3.88251e-019 2.28338 -7.74613 1.19104 -0.0157554 14.4566 -0.185635 1.59902 -6.30746 5.79742 
-35.2542 82.2054 8.96087 2.1681 -0.180582 65.0018 -0.809287 -2.2206 1.64007 -1.23926 4.12046 0.491946 2.2009 9.65661 3.71831 -1.16652 -21.6896 6.96797 -0 0 0 -0 0 0 1.72841e-014 -9.91269e-014 1.28421e-013 45.6132 20.7263 1.64782 -21.8569 -19.2422 30.1591 -0.0142959 7.2253 1.01485 3.97097e-010 6.85171e-010 -8.70747e-010 6.78304e-010 1.18127e-009 -1.50774e-009 3.97106e-010 6.85173e-010 -8.70753e-010 7.73091 5.47488 0.417314 3.97099e-010 6.8517e-010 -8.70745e-010 2.90554 0.965183 0.102902 3.97104e-010 6.85172e-010 -8.70751e-010 10.2786 0.731801 0.0259123 3.97095e-010 6.85174e-010 -8.70747e-010 2.22167 -0.733487 -0.20892 1.72248e-014 -9.9125e-014 1.28244e-013 -43.8131 17.6645 0.420944 21.1958 -18.2647 -29.5789 0.0175418 7.99925 -1.12341 -9.34205e-010 -5.39256e-010 -1.47099e-011 -1.61546e-009 -9.36193e-010 -1.40524e-011 -9.3422e-010 -5.39256e-010 -1.46914e-011 -7.73091 5.47488 -0.417314 -9.34207e-010 -5.39259e-010 -1.47111e-011 -2.90554 0.965183 -0.102902 -9.34211e-010 -5.3926e-010 -1.47095e-011 -10.2786 0.731801 -0.0259123 -9.342e-010 -5.39258e-010 -1.47113e-011 -2.22167 -0.733487 0.20892 -2.03217e-016 0 -3.88251e-019 -6.20889 -7.52613 0.975015 0.0227255 19.8825 0.375307 -4.90146 -13.2514 -13.3173 2.03217e-016 0 3.88251e-019 5.99507 -10.6607 2.36328 0.0495849 26.0598 -0.40572 4.50532 -14.3074 12.3427 
-35.2579 82.2189 8.95685 2.95238 0.0513189 94.7973 -0.790167 -3.23955 2.40328 -1.7458 6.03058 0.737308 2.78517 14.0461 5.51122 0.346487 -31.3715 11.0745 -0 0 0 -0 0 0 2.44261e-014 -1.39826e-013 1.82094e-013 66.0632 30.2091 2.61813 -25.2254 -23.502 46.0218 -0.107827 10.5363 1.4936 5.65193e-010 9.72822e-010 -1.23456e-009 9.65504e-010 1.67721e-009 -2.13771e-009 5.65204e-010 9.72823e-010 -1.23456e-009 7.73091 5.47488 0.417314 5.65196e-010 9.7282e-010 -1.23456e-009 2.90554 0.965183 0.102902 5.65198e-010 9.72823e-010 -1.23456e-009 10.2786 0.731801 0.0259123 5.6519e-010 9.72826e-010 -1.23456e-009 2.22167 -0.733487 -0.20892 2.43794e-014 -1.39823e-013 1.81879e-013 -63.9703 25.7564 0.631187 24.7298 -22.4677 -44.9574 0.132497 11.6611 -1.6563 -1.32753e-009 -7.65272e-010 -1.79367e-011 -2.2956e-009 -1.32856e-009 -1.48503e-011 -1.32755e-009 -7.65274e-010 -1.79173e-011 -7.73091 5.47488 -0.417314 -1.32753e-009 -7.65277e-010 -1.79371e-011 -2.90554 0.965183 -0.102902 -1.32753e-009 -7.65278e-010 -1.7938e-011 -10.2786 0.731801 -0.0259123 -1.32752e-009 -7.65276e-010 -1.79389e-011 -2.22167 -0.733487 0.20892 -2.03217e-016 0 -3.88251e-019 -8.97085 -10.0194 1.44424 -0.0924308 29.8136 0.6337 -9.71313 -20.3977 -20.2674 2.03217e-016 0 3.88251e-019 9.40459 -13.2419 3.44521 0.202149 36.3997 -0.657415 8.73647 -20.9627 18.7539 
-35.2791 82.1377 8.97403 3.41525 0.306291 115.561 -0.780974 -3.96497 2.93504 -2.14589 7.43273 0.912932 3.04501 17.0725 6.82028 2.46885 -37.9414 14.6544 -0 0 0 -0 0 0 2.70629e-014 -1.50979e-013 2.00474e-013 80.0766 36.7972 3.52129 -26.1092 -23.7182 57.2234 -0.20682 12.8475 1.8368 6.36553e-010 1.07737e-009 -1.36172e-009 1.08776e-009 1.85755e-009 -2.35796e-009 6.36564e-010 1.07737e-009 -1.36173e-009 7.73091 5.47488 0.417314 6.36556e-010 1.07737e-009 -1.36172e-009 2.90554 0.965183 0.102902 6.36557e-010 1.07737e-009 -1.36173e-009 10.2786 0.731801 0.0259123 6.36549e-010 1.07737e-009 -1.36172e-009 2.22167 -0.733487 -0.20892 2.70082e-014 -1.50975e-013 2.00226e-013 -77.9813 31.3833 0.73246 25.7757 -22.8723 -55.8549 0.254046 14.2047 -2.03871 -1.47016e-009 -8.45929e-010 -9.2904e-012 -2.54221e-009 -1.46853e-009 1.85983e-012 -1.47018e-009 -8.45931e-010 -9.27132e-012 -7.73091 5.47488 -0.417314 -1.47016e-009 -8.45934e-010 -9.2904e-012 -2.90554 0.965183 -0.102902 -1.47016e-009 -8.45935e-010 -9.29279e-012 -10.2786 0.731801 -0.0259123 -1.47015e-009 -8.45933e-010 -9.29358e-012 -2.22167 -0.733487 0.20892 -2.03217e-016 0 -3.88251e-019 -10.8877 -11.779 1.79372 -0.240551 36.7885 0.859237 -14.2085 -24.9389 -25.6103 2.03217e-016 0 3.88251e-019 11.8292 -15.005 4.25161 0.383435 43.583 -0.888666 12.6563 -25.1935 23.6692 
